<?xml version="1.0" encoding="UTF-8" standalone="no"?>
<!-- Generator: Adobe Illustrator 19.1.0, SVG Export Plug-In . SVG Version: 6.00 Build 0)  -->

<svg
   xmlns:dc="http://purl.org/dc/elements/1.1/"
   xmlns:cc="http://creativecommons.org/ns#"
   xmlns:rdf="http://www.w3.org/1999/02/22-rdf-syntax-ns#"
   xmlns:svg="http://www.w3.org/2000/svg"
   xmlns="http://www.w3.org/2000/svg"
   xmlns:sodipodi="http://sodipodi.sourceforge.net/DTD/sodipodi-0.dtd"
   xmlns:inkscape="http://www.inkscape.org/namespaces/inkscape"
   version="1.1"
   id="Capa_1"
   x="0px"
   y="0px"
   viewBox="0 0 488.3 488.3"
   style="enable-background:new 0 0 488.3 488.3;"
   xml:space="preserve"
   width="512px"
   height="512px"
   inkscape:version="0.91 r13725"
   sodipodi:docname="compare-remove.svg"><metadata
     id="metadata45"><rdf:RDF><cc:Work
         rdf:about=""><dc:format>image/svg+xml</dc:format><dc:type
           rdf:resource="http://purl.org/dc/dcmitype/StillImage" /><dc:title /></cc:Work></rdf:RDF></metadata><defs
     id="defs43" /><sodipodi:namedview
     pagecolor="#ffffff"
     bordercolor="#666666"
     borderopacity="1"
     objecttolerance="10"
     gridtolerance="10"
     guidetolerance="10"
     inkscape:pageopacity="0"
     inkscape:pageshadow="2"
     inkscape:window-width="1303"
     inkscape:window-height="798"
     id="namedview41"
     showgrid="false"
     inkscape:zoom="0.72828951"
     inkscape:cx="113.43294"
     inkscape:cy="189.83051"
     inkscape:window-x="272"
     inkscape:window-y="171"
     inkscape:window-maximized="0"
     inkscape:current-layer="Capa_1" /><g
     id="g3"
     style="stroke:#ffffff;stroke-width:9.53710938;stroke-miterlimit:4;stroke-dasharray:none;stroke-opacity:1;fill:#ffffff;fill-opacity:1"
     transform="matrix(1.000771,0,0,0.93705805,-0.18823996,13.201223)"><g
       id="g5"
       style="stroke:#ffffff;stroke-width:9.53710938;stroke-miterlimit:4;stroke-dasharray:none;stroke-opacity:1;fill:#ffffff;fill-opacity:1"><path
         d="m 314.25,85.4 -227,0 c -21.3,0 -38.6,17.3 -38.6,38.6 l 0,325.7 c 0,21.3 17.3,38.6 38.6,38.6 l 227,0 c 21.3,0 38.6,-17.3 38.6,-38.6 l 0,-325.7 c -0.1,-21.3 -17.4,-38.6 -38.6,-38.6 z m 11.5,364.2 c 0,6.4 -5.2,11.6 -11.6,11.6 l -227,0 c -6.4,0 -11.6,-5.2 -11.6,-11.6 l 0,-325.6 c 0,-6.4 5.2,-11.6 11.6,-11.6 l 227,0 c 6.4,0 11.6,5.2 11.6,11.6 l 0,325.6 z"
         id="path7"
         style="fill:#ffffff;stroke:#ffffff;stroke-width:9.53710938;stroke-miterlimit:4;stroke-dasharray:none;stroke-opacity:1;fill-opacity:1"
         inkscape:connector-curvature="0" /><path
         d="m 401.05,0 -227,0 c -21.3,0 -38.6,17.3 -38.6,38.6 0,7.5 6,13.5 13.5,13.5 7.5,0 13.5,-6 13.5,-13.5 0,-6.4 5.2,-11.6 11.6,-11.6 l 227,0 c 6.4,0 11.6,5.2 11.6,11.6 l 0,325.7 c 0,6.4 -5.2,11.6 -11.6,11.6 -7.5,0 -13.5,6 -13.5,13.5 0,7.5 6,13.5 13.5,13.5 21.3,0 38.6,-17.3 38.6,-38.6 l 0,-325.7 C 439.65,17.3 422.35,0 401.05,0 Z"
         id="path9"
         style="fill:#ffffff;stroke:#ffffff;stroke-width:9.53710938;stroke-miterlimit:4;stroke-dasharray:none;stroke-opacity:1;fill-opacity:1"
         inkscape:connector-curvature="0" /></g></g><g
     id="g11" /><g
     id="g13" /><g
     id="g15" /><g
     id="g17" /><g
     id="g19" /><g
     id="g21" /><g
     id="g23" /><g
     id="g25" /><g
     id="g27" /><g
     id="g29" /><g
     id="g31" /><g
     id="g33" /><g
     id="g35" /><g
     id="g37" /><g
     id="g39" /><g
     id="g4379"
     transform="matrix(0.38700899,0,0,0.38700899,105.84576,186.2155)"
     style="fill:#9999cc"><g
       id="g4307"
       style="fill:#9999cc"><g
         id="g4309"
         style="fill:#9999cc"><path
           id="path4311"
           d="m 465.167,211.614 -184.922,0 -68.632,0.001 -184.923,0 C 18.267,211.614 0,223.053 0,245.929 c 0,22.876 18.267,34.316 26.69,34.316 l 184.924,0 68.632,0 184.924,0 c 8.422,0 26.69,-11.438 26.69,-34.316 0,-22.878 -18.27,-34.315 -26.693,-34.315 z"
           inkscape:connector-curvature="0"
           style="fill:#ffffff;fill-opacity:1"
           sodipodi:nodetypes="scccssccsss" /></g><g
         id="g4313"
         style="fill:#9999cc" /><g
         id="g4315"
         style="fill:#9999cc" /><g
         id="g4317"
         style="fill:#9999cc" /><g
         id="g4319"
         style="fill:#9999cc" /><g
         id="g4321"
         style="fill:#9999cc" /><g
         id="g4323"
         style="fill:#9999cc" /><g
         id="g4325"
         style="fill:#9999cc" /><g
         id="g4327"
         style="fill:#9999cc" /><g
         id="g4329"
         style="fill:#9999cc" /><g
         id="g4331"
         style="fill:#9999cc" /><g
         id="g4333"
         style="fill:#9999cc" /><g
         id="g4335"
         style="fill:#9999cc" /><g
         id="g4337"
         style="fill:#9999cc" /><g
         id="g4339"
         style="fill:#9999cc" /><g
         id="g4341"
         style="fill:#9999cc" /></g><g
       id="g4343"
       style="fill:#9999cc" /><g
       id="g4345"
       style="fill:#9999cc" /><g
       id="g4347"
       style="fill:#9999cc" /><g
       id="g4349"
       style="fill:#9999cc" /><g
       id="g4351"
       style="fill:#9999cc" /><g
       id="g4353"
       style="fill:#9999cc" /><g
       id="g4355"
       style="fill:#9999cc" /><g
       id="g4357"
       style="fill:#9999cc" /><g
       id="g4359"
       style="fill:#9999cc" /><g
       id="g4361"
       style="fill:#9999cc" /><g
       id="g4363"
       style="fill:#9999cc" /><g
       id="g4365"
       style="fill:#9999cc" /><g
       id="g4367"
       style="fill:#9999cc" /><g
       id="g4369"
       style="fill:#9999cc" /><g
       id="g4371"
       style="fill:#9999cc" /></g></svg>