<?xml version="1.0" encoding="UTF-8" standalone="no"?>
<!-- Generator: Adobe Illustrator 19.2.0, SVG Export Plug-In . SVG Version: 6.00 Build 0)  -->

<svg
   xmlns:dc="http://purl.org/dc/elements/1.1/"
   xmlns:cc="http://creativecommons.org/ns#"
   xmlns:rdf="http://www.w3.org/1999/02/22-rdf-syntax-ns#"
   xmlns:svg="http://www.w3.org/2000/svg"
   xmlns="http://www.w3.org/2000/svg"
   xmlns:sodipodi="http://sodipodi.sourceforge.net/DTD/sodipodi-0.dtd"
   xmlns:inkscape="http://www.inkscape.org/namespaces/inkscape"
   version="1.1"
   id="Capa_1"
   x="0px"
   y="0px"
   viewBox="0 0 512 512"
   style="enable-background:new 0 0 512 512;"
   xml:space="preserve"
   inkscape:version="0.91 r13725"
   sodipodi:docname="icon-list-grey.svg"><metadata
     id="metadata21"><rdf:RDF><cc:Work
         rdf:about=""><dc:format>image/svg+xml</dc:format><dc:type
           rdf:resource="http://purl.org/dc/dcmitype/StillImage" /><dc:title></dc:title></cc:Work></rdf:RDF></metadata><defs
     id="defs19" /><sodipodi:namedview
     pagecolor="#ffffff"
     bordercolor="#666666"
     borderopacity="1"
     objecttolerance="10"
     gridtolerance="10"
     guidetolerance="10"
     inkscape:pageopacity="0"
     inkscape:pageshadow="2"
     inkscape:window-width="832"
     inkscape:window-height="480"
     id="namedview17"
     showgrid="false"
     inkscape:snap-intersection-paths="false"
     inkscape:zoom="0.4609375"
     inkscape:cx="82.440678"
     inkscape:cy="256"
     inkscape:window-x="434"
     inkscape:window-y="463"
     inkscape:window-maximized="0"
     inkscape:current-layer="Capa_1" /><style
     type="text/css"
     id="style3">
	.st0{fill:#FDFEFF;}
</style><path
     class="st0"
     d="M75.3,5.9C33.8,5.9,0,39.6,0,81.1c0,41.5,33.8,75.3,75.3,75.3s75.3-33.8,75.3-75.3  C150.5,39.6,116.8,5.9,75.3,5.9z M75.3,120.1c-21.5,0-39-17.5-39-39c0-21.5,17.5-39,39-39c21.5,0,39,17.5,39,39  S96.7,120.1,75.3,120.1z"
     id="path5"
     style="fill:#a3a3a3;fill-opacity:1" /><path
     class="st0"
     d="M75.3,180.7C33.8,180.7,0,214.5,0,256s33.8,75.3,75.3,75.3s75.3-33.8,75.3-75.3  C150.5,214.5,116.8,180.7,75.3,180.7z M75.3,295c-21.5,0-39-17.5-39-39s17.5-39,39-39c21.5,0,39,17.5,39,39S96.7,295,75.3,295z"
     id="path7"
     style="fill:#a3a3a3;fill-opacity:1" /><path
     class="st0"
     d="M75.3,355.6C33.8,355.6,0,389.4,0,430.9s33.8,75.3,75.3,75.3s75.3-33.8,75.3-75.3S116.8,355.6,75.3,355.6z   M75.3,469.9c-21.5,0-39-17.5-39-39s17.5-39,39-39c21.5,0,39,17.5,39,39S96.7,469.9,75.3,469.9z"
     id="path9"
     style="fill:#a3a3a3;fill-opacity:1" /><path
     class="st0"
     d="M209.8,100.5h283.5c9.6,0,17.3-8.7,17.3-19.4c0-10.7-7.7-19.4-17.3-19.4H209.8c-9.6,0-17.3,8.7-17.3,19.4  C192.5,91.8,200.3,100.5,209.8,100.5z"
     id="path11"
     style="fill:#a3a3a3;fill-opacity:1" /><path
     class="st0"
     d="M209.8,276.4h283.5c9.6,0,17.3-8.7,17.3-19.4c0-10.7-7.7-19.4-17.3-19.4H209.8c-9.6,0-17.3,8.7-17.3,19.4  C192.5,267.7,200.3,276.4,209.8,276.4z"
     id="path13"
     style="fill:#a3a3a3;fill-opacity:1" /><path
     class="st0"
     d="M209.8,450.3h283.5c9.6,0,17.3-8.7,17.3-19.4c0-10.7-7.7-19.4-17.3-19.4H209.8c-9.6,0-17.3,8.7-17.3,19.4  C192.5,441.6,200.3,450.3,209.8,450.3z"
     id="path15"
     style="fill:#a3a3a3;fill-opacity:1" /></svg>