<?xml version="1.0" encoding="UTF-8" standalone="no"?>
<!-- Generator: Adobe Illustrator 19.1.0, SVG Export Plug-In . SVG Version: 6.00 Build 0)  -->

<svg
   xmlns:dc="http://purl.org/dc/elements/1.1/"
   xmlns:cc="http://creativecommons.org/ns#"
   xmlns:rdf="http://www.w3.org/1999/02/22-rdf-syntax-ns#"
   xmlns:svg="http://www.w3.org/2000/svg"
   xmlns="http://www.w3.org/2000/svg"
   xmlns:sodipodi="http://sodipodi.sourceforge.net/DTD/sodipodi-0.dtd"
   xmlns:inkscape="http://www.inkscape.org/namespaces/inkscape"
   version="1.1"
   id="Capa_1"
   x="0px"
   y="0px"
   viewBox="0 0 488.3 488.3"
   style="enable-background:new 0 0 488.3 488.3;"
   xml:space="preserve"
   width="512px"
   height="512px"
   inkscape:version="0.91 r13725"
   sodipodi:docname="compare-none.svg"><metadata
     id="metadata45"><rdf:RDF><cc:Work
         rdf:about=""><dc:format>image/svg+xml</dc:format><dc:type
           rdf:resource="http://purl.org/dc/dcmitype/StillImage" /><dc:title /></cc:Work></rdf:RDF></metadata><defs
     id="defs43"><marker
       inkscape:stockid="Arrow1Lstart"
       orient="auto"
       refY="0.0"
       refX="0.0"
       id="Arrow1Lstart"
       style="overflow:visible"
       inkscape:isstock="true"><path
         id="path4189"
         d="M 0.0,0.0 L 5.0,-5.0 L -12.5,0.0 L 5.0,5.0 L 0.0,0.0 z "
         style="fill-rule:evenodd;stroke:#000000;stroke-width:1.0pt"
         transform="scale(0.8) translate(12.5,0)" /></marker></defs><sodipodi:namedview
     pagecolor="#ffffff"
     bordercolor="#666666"
     borderopacity="1"
     objecttolerance="10"
     gridtolerance="10"
     guidetolerance="10"
     inkscape:pageopacity="0"
     inkscape:pageshadow="2"
     inkscape:window-width="1554"
     inkscape:window-height="818"
     id="namedview41"
     showgrid="false"
     inkscape:zoom="1.0299569"
     inkscape:cx="113.43294"
     inkscape:cy="189.83051"
     inkscape:window-x="272"
     inkscape:window-y="171"
     inkscape:window-maximized="0"
     inkscape:current-layer="Capa_1"
     showguides="true"
     inkscape:guide-bbox="true" /><g
     id="g3"
     style="stroke:#ffffff;stroke-width:9.53720139;stroke-miterlimit:4;stroke-dasharray:none;stroke-opacity:1;fill:#ffffff;fill-opacity:1"
     transform="matrix(1.000771,0,0,0.93705805,-0.18823996,13.201223)"><g
       id="g5"
       style="stroke:#ffffff;stroke-width:9.53720139;stroke-miterlimit:4;stroke-dasharray:none;stroke-opacity:1;fill:#ffffff;fill-opacity:1"><path
         d="m 314.25,85.4 -227,0 c -21.3,0 -38.6,17.3 -38.6,38.6 l 0,325.7 c 0,21.3 17.3,38.6 38.6,38.6 l 227,0 c 21.3,0 38.6,-17.3 38.6,-38.6 l 0,-325.7 c -0.1,-21.3 -17.4,-38.6 -38.6,-38.6 z m 11.5,364.2 c 0,6.4 -5.2,11.6 -11.6,11.6 l -227,0 c -6.4,0 -11.6,-5.2 -11.6,-11.6 l 0,-325.6 c 0,-6.4 5.2,-11.6 11.6,-11.6 l 227,0 c 6.4,0 11.6,5.2 11.6,11.6 l 0,325.6 z"
         id="path7"
         style="fill:#ffffff;stroke:#ffffff;stroke-width:9.53720139;stroke-miterlimit:4;stroke-dasharray:none;stroke-opacity:1;fill-opacity:1"
         inkscape:connector-curvature="0" /><path
         d="m 401.05,0 -227,0 c -21.3,0 -38.6,17.3 -38.6,38.6 0,7.5 6,13.5 13.5,13.5 7.5,0 13.5,-6 13.5,-13.5 0,-6.4 5.2,-11.6 11.6,-11.6 l 227,0 c 6.4,0 11.6,5.2 11.6,11.6 l 0,325.7 c 0,6.4 -5.2,11.6 -11.6,11.6 -7.5,0 -13.5,6 -13.5,13.5 0,7.5 6,13.5 13.5,13.5 21.3,0 38.6,-17.3 38.6,-38.6 l 0,-325.7 C 439.65,17.3 422.35,0 401.05,0 Z"
         id="path9"
         style="fill:#ffffff;stroke:#ffffff;stroke-width:9.53720139;stroke-miterlimit:4;stroke-dasharray:none;stroke-opacity:1;fill-opacity:1"
         inkscape:connector-curvature="0" /></g></g><g
     id="g11" /><g
     id="g13" /><g
     id="g15" /><g
     id="g17" /><g
     id="g19" /><g
     id="g21" /><g
     id="g23" /><g
     id="g25" /><g
     id="g27" /><g
     id="g29" /><g
     id="g31" /><g
     id="g33" /><g
     id="g35" /><g
     id="g37" /><g
     id="g39" /><g
     id="g4379"
     transform="matrix(0.38700899,0,0,0.38700899,105.84576,186.2155)"
     style="fill:#9999cc"><g
       id="g4307"
       style="fill:#9999cc"><g
         id="g4309"
         style="fill:#9999cc"><path
           id="path4311"
           d="M 374.95447,65.388776 245.46147,197.40282 113.44671,67.909118 C 107.4329,62.010149 86.382726,57.38544 70.362937,73.717111 54.343148,90.048783 59.373539,111.00658 65.386639,116.90484 L 197.40211,246.39925 67.908408,378.41401 c -5.898982,6.01239 -10.524392,27.06328 5.806566,43.08237 16.330957,16.01909 37.289466,10.9894 43.187736,4.9763 L 246.39711,294.4572 378.41258,423.95161 c 6.0124,5.89757 27.06328,10.52439 43.08377,-5.808 16.0205,-16.33238 10.98869,-37.29017 4.9763,-43.18774 L 294.45718,245.46148 423.95158,113.446 c 5.89757,-6.01238 10.52439,-27.063278 -5.80799,-43.083767 -16.33238,-16.02049 -37.29086,-10.986556 -43.18912,-4.973457 z"
           inkscape:connector-curvature="0"
           style="fill:#ffffff;fill-opacity:1" /></g><g
         id="g4313"
         style="fill:#9999cc" /><g
         id="g4315"
         style="fill:#9999cc" /><g
         id="g4317"
         style="fill:#9999cc" /><g
         id="g4319"
         style="fill:#9999cc" /><g
         id="g4321"
         style="fill:#9999cc" /><g
         id="g4323"
         style="fill:#9999cc" /><g
         id="g4325"
         style="fill:#9999cc" /><g
         id="g4327"
         style="fill:#9999cc" /><g
         id="g4329"
         style="fill:#9999cc" /><g
         id="g4331"
         style="fill:#9999cc" /><g
         id="g4333"
         style="fill:#9999cc" /><g
         id="g4335"
         style="fill:#9999cc" /><g
         id="g4337"
         style="fill:#9999cc" /><g
         id="g4339"
         style="fill:#9999cc" /><g
         id="g4341"
         style="fill:#9999cc" /></g><g
       id="g4343"
       style="fill:#9999cc" /><g
       id="g4345"
       style="fill:#9999cc" /><g
       id="g4347"
       style="fill:#9999cc" /><g
       id="g4349"
       style="fill:#9999cc" /><g
       id="g4351"
       style="fill:#9999cc" /><g
       id="g4353"
       style="fill:#9999cc" /><g
       id="g4355"
       style="fill:#9999cc" /><g
       id="g4357"
       style="fill:#9999cc" /><g
       id="g4359"
       style="fill:#9999cc" /><g
       id="g4361"
       style="fill:#9999cc" /><g
       id="g4363"
       style="fill:#9999cc" /><g
       id="g4365"
       style="fill:#9999cc" /><g
       id="g4367"
       style="fill:#9999cc" /><g
       id="g4369"
       style="fill:#9999cc" /><g
       id="g4371"
       style="fill:#9999cc" /></g></svg>